<svg xmlns="http://www.w3.org/2000/svg" xmlns:xlink="http://www.w3.org/1999/xlink" viewBox="0 0 155.63396 179.71062">
  <defs>
    <linearGradient id="c">
      <stop offset="0" stop-color="#c93d39"/>
      <stop offset="1" stop-color="#fff" stop-opacity="0"/>
    </linearGradient>
    <linearGradient id="b">
      <stop offset="0" stop-color="#3b972e"/>
      <stop offset="1" stop-color="#fff" stop-opacity="0"/>
    </linearGradient>
    <linearGradient id="a">
      <stop offset="0" stop-color="#945bb0"/>
      <stop offset="1" stop-color="#fff" stop-opacity="0"/>
    </linearGradient>
    <radialGradient id="f" cx="414.02301" cy="687.40204" r="86.830666" fx="414.02301" fy="687.40204" gradientTransform="matrix(.0142 -1.5297 1.71535 .01591 -1033.5146 1628.7627)" gradientUnits="userSpaceOnUse" xlink:href="#a"/>
    <radialGradient id="d" cx="499.3504" cy="645.45337" r="86.830666" fx="499.3504" fy="645.45337" gradientTransform="matrix(-1.26566 1.227 -1.1253 -1.16075 1436.5452 1012.4852)" gradientUnits="userSpaceOnUse" xlink:href="#b"/>
    <radialGradient id="e" cx="580.789" cy="628.65375" r="86.830666" fx="580.789" fy="628.65375" gradientTransform="matrix(1.72341 -.00186 .00163 1.51192 -998.84418 55.629146)" gradientUnits="userSpaceOnUse" xlink:href="#c"/>
  </defs>
  <path fill="#fff" d="M155.17530024 134.51811l-77.358322 44.6629L.4586607 134.51811l4e-7-89.32565L77.81697923.52962l77.358321 44.66284z"/>
  <text x="124.75384" y="841.2403" font-family="sans-serif" font-size="40" font-weight="400" letter-spacing="0" style="line-height:125%" transform="translate(2.4e-7 -872.65159)" word-spacing="0"/>
  <path fill="none" stroke="url(#d)" stroke-width="4.45108843" d="M152.82938 1005.652l-75.072644 43.3432-75.072645-43.3432 4e-7-86.68644 75.0726456-43.34321 75.072643 43.34322z" transform="translate(2.4e-7 -872.65159)"/>
  <path fill="none" stroke="url(#e)" stroke-width="4.45108843" d="M152.82938 1005.652l-75.072644 43.3432-75.072645-43.3432 4e-7-86.68644 75.0726456-43.34321 75.072643 43.34322z" transform="translate(2.4e-7 -872.65159)"/>
  <path fill="none" stroke="url(#f)" stroke-width="4.45108843" d="M152.82938 1005.652l-75.072644 43.3432-75.072645-43.3432 4e-7-86.68644 75.0726456-43.34321 75.072643 43.34322z" transform="translate(2.4e-7 -872.65159)"/>
  <path fill="none" stroke="#3e3e3e" stroke-width=".91732138" d="M155.17530024 134.51811l-77.358322 44.6629L.4586607 134.51811l4e-7-89.32565L77.81697923.52962l77.358321 44.66284z"/>
  <path fill="none" stroke="#c93d39" stroke-linecap="round" stroke-width="6.26843357" d="M84.21648624 108.39514h14.502813"/>
  <g fill="none" stroke="#1a1a1a" stroke-width="3">
    <path d="M12.791499 995.09698v6.00002M12.374369 1000.597H142.25517M141.94901 995.09698v6.00002M77.370248 995.09698v6.00002M45.080873 995.09698v6.00002M109.65966 995.09698v6.00002" transform="matrix(.99446 0 0 1.58048 .42841123 -1455.58921)"/>
  </g>
  <path fill="none" stroke="#4266d5" stroke-linecap="round" stroke-width="6.26843357" d="M15.46827524 108.39514h46.58854"/>
  <path fill="none" stroke="#945bb0" stroke-linecap="round" stroke-width="6.26843357" d="M106.06275024 108.39514h33.4401"/>
  <path fill="none" stroke="#3b972e" stroke-linecap="round" stroke-width="6.26843357" d="M77.75094424 98.01771h46.588536"/>
  <path fill="none" stroke="#c93d39" stroke-linecap="round" stroke-width="6.26843357" d="M15.65532324 98.01769h14.502812"/>
  <path fill="#1a1a1a" d="M38.71629524 52.36567q.401285 0 .66094.25965.259655.23605.259655.63734v5.85404q0 .40128-.259655.66094-2.195265 2.03003-5.783225 2.03003-2.50213 0-4.602975-1.27467-2.100845-1.27467-3.35191-3.44633-1.22746-2.17166-1.22746-4.74461 0-2.54934 1.22746-4.721t3.328305-3.44633q2.100845-1.27467 4.62658-1.27467 1.69956 0 3.092255.4957 1.392695.49571 2.69097 1.58154.259655.18884.259655.54291 0 .18884-.09442.35408-.09442.14163-.259655.21244-.04721.16524-.212445.28326-.165235.0944-.354075.0944-.33047 0-.590125-.23605-.920595-.82617-2.006425-1.20385-1.08583-.37768-2.525735-.37768-1.98282 0-3.68238 1.06222-1.69956 1.03862-2.714575 2.809-.99141 1.77037-.99141 3.82401 0 2.10085.99141 3.87122.99141 1.77038 2.69097 2.809t3.705985 1.03862q2.289685 0 4.2489-1.34549v-4.721h-3.68238q-.401285 0-.66094-.23605-.259655-.23605-.259655-.59012 0-.35408.259655-.56652.259655-.23605.66094-.23605h4.555765zM47.86139024 48.54165q1.74677 0 3.092255.82618 1.345485.80257 2.077241 2.24247.75536 1.43991.75536 3.2811 0 .37768-.23605.61373-.23605.21245-.613731.21245h-9.53642q.18884 1.93561 1.51072 3.13946 1.32188 1.20386 3.3047 1.20386.84978 0 1.69956-.28326.873385-.30687 1.392695-.75536.306865-.23605.637335-.23605.259655 0 .51931.18884.306865.28326.306865.63733 0 .30687-.259655.54292-.778965.66094-1.98282 1.10943-1.203855.42489-2.31329.42489-1.8884 0-3.375515-.82617-1.487115-.84978-2.336895-2.3369-.826175-1.51072-.826175-3.39912 0-1.912.778965-3.39912.80257-1.51072 2.195265-2.3369 1.4163-.84978 3.21028-.84978zm0 1.62875q-1.79398 0-2.97423 1.10943-1.18025 1.10944-1.439905 2.92703h8.63943q-.18884-1.81759-1.32188-2.92703-1.13304-1.10943-2.903415-1.10943zM62.95162424 48.51805q1.675955 0 2.997835.70815 1.345485.70815 2.100845 2.07724.75536 1.34549.75536 3.23389v6.1373q0 .37768-.259655.63733-.259655.25966-.637335.25966-.401285 0-.66094-.25966-.259655-.25965-.259655-.63733v-6.1373q0-2.10085-1.18025-3.18668-1.156645-1.10944-3.045045-1.10944-1.156645 0-2.100846.4485-.920595.44849-1.46351 1.25106-.542915.77897-.542915 1.74678v6.98708q0 .40128-.259655.66094-.23605.23605-.637335.23605t-.66094-.23605q-.259655-.25966-.259655-.66094V49.58027q0-.40128.259655-.66094.259655-.25965.66094-.25965.401285 0 .637335.25965.259655.25966.259655.66094v.80257q.778965-.87338 1.8884-1.36909 1.109436-.4957 2.407711-.4957zM78.66739024 48.54165q1.864795 0 3.35191.84978 1.487115.84978 2.336895 2.3605.873386 1.51073.873386 3.37552 0 1.8648-.849781 3.37552-.84978 1.48711-2.3605 2.33689-1.487115.84978-3.35191.84978-1.864795 0-3.375515-.84978-1.487115-.84978-2.336895-2.33689-.84978-1.51072-.84978-3.37552 0-1.86479.84978-3.37552.84978-1.51072 2.336895-2.3605 1.51072-.84978 3.375515-.84978zm0 1.65235q-1.345485 0-2.45492.63734-1.08583.63733-1.723165 1.77038-.61373 1.10943-.61373 2.52573 0 1.3927.61373 2.52574.637335 1.10943 1.723165 1.74677 1.109435.63733 2.45492.63733 1.36909 0 2.45492-.63733 1.08583-.63734 1.69956-1.74677.61373-1.13304.61373-2.52574 0-1.4163-.61373-2.52573-.61373-1.13305-1.69956-1.77038-1.08583-.63734-2.45492-.63734zM102.33805024 48.51805q1.39269 0 2.45492.66094 1.08583.66094 1.67595 1.8884.61373 1.20385.61373 2.809v6.79824q0 .40128-.25965.66094-.23605.23605-.63734.23605-.40128 0-.66094-.23605-.25965-.25966-.25965-.66094v-6.79824q0-1.67596-.87339-2.64377-.84978-.99141-2.24247-.99141-1.48712 0-2.407714.99141-.920595.99141-.89699 2.59656v6.84544q0 .40128-.259655.66094-.23605.23605-.637335.23605t-.66094-.23605q-.259655-.25966-.259655-.66094v-6.79824q0-1.67596-.873385-2.64377-.84978-.99141-2.242476-.99141-1.46351 0-2.40771.96781-.9442.9678-.9442 2.47853v6.98708q0 .40128-.259655.66094-.23605.23605-.637335.23605t-.66094-.23605q-.259655-.25966-.259655-.66094V49.58026q0-.40128.259655-.66094.259655-.25965.66094-.25965.401285 0 .637335.25965.259655.25966.259655.66094v.51931q.66094-.75536 1.55793-1.15664.920595-.42489 1.98282-.42489 1.298276 0 2.336896.59012 1.03862.59013 1.65235 1.65235.684545-1.06222 1.770375-1.65235 1.109439-.59012 2.478529-.59012zM111.47945024 49.58027q0-.40128.25966-.66094.25965-.25965.66094-.25965.40128 0 .63733.25965.25966.25966.25966.66094v11.07075q0 .40129-.25966.66094-.23605.25966-.63733.25966-.40129 0-.66094-.25966-.25966-.25965-.25966-.66094V49.58027zm.9206-5.94846q.51931 0 .89699.35408.37768.35407.37768.92059 0 .54292-.37768.9206t-.9206.37768q-.54291 0-.92059-.37768-.35408-.37768-.35408-.9206 0-.56652.37768-.92059.37768-.35408.9206-.35408zM123.44866024 48.54165q2.95063 0 4.79182 2.26608.18884.21245.18884.49571 0 .37768-.40129.66094-.21244.14163-.44849.14163-.35408 0-.68455-.35408-.70815-.77896-1.55793-1.15664-.84978-.40129-1.8884-.40129-1.29827 0-2.31329.63734-1.01501.61373-1.58153 1.74677-.54292 1.13304-.54292 2.54934 0 1.3927.59013 2.52574.59012 1.10943 1.65235 1.74677 1.06222.63733 2.43131.63733 1.8884 0 3.04505-1.01501.30686-.25966.63733-.25966.28326 0 .51931.18884.33047.28326.33047.63734 0 .30686-.23605.51931-1.69956 1.58153-4.29611 1.58153-1.84119 0-3.3047-.84978-1.46351-.87338-2.31329-2.3605-.82617-1.51072-.82617-3.35191 0-1.8884.80257-3.37552.80257-1.51072 2.21887-2.3605t3.18667-.84978zM35.13525624 74.79592q.401286 0 .660941.25965.259655.23605.259655.63734 0 .37768-.259655.63733-.259655.25966-.660941.25966h-7.388365v7.43557q0 .37768-.259655.66094-.259655.25966-.66094.25966-.37768 0-.66094-.25966-.259655-.28326-.259655-.66094V67.43116q0-.40129.259655-.66094.28326-.25966.66094-.25966h11.070746q.401285 0 .66094.25966.259655.25965.259655.63733 0 .37768-.259655.63734-.259655.23605-.66094.23605h-10.150151v6.51498h7.388365zM47.34014924 71.91611q1.74677 0 3.092255.82617 1.345485.80257 2.07724 2.24248.75536 1.4399.75536 3.28109 0 .37768-.23605.61373-.23605.21245-.61373.21245h-9.53642q.18884 1.93561 1.51072 3.13946 1.32188 1.20386 3.3047 1.20386.84978 0 1.69956-.28326.873385-.30687 1.392695-.75536.306865-.23605.637335-.23605.259655 0 .51931.18884.306865.28326.306865.63733 0 .30687-.259655.54292-.778965.66094-1.98282 1.10943-1.203855.42489-2.31329.42489-1.8884 0-3.375515-.82617-1.487115-.84978-2.336895-2.3369-.826175-1.51072-.826175-3.39912 0-1.912.778965-3.39912.80257-1.51072 2.195265-2.33689 1.4163-.84978 3.21028-.84978zm0 1.62874q-1.79398 0-2.97423 1.10944-1.18025 1.10943-1.439905 2.92702h8.63943q-.18884-1.81759-1.32188-2.92702-1.13304-1.10944-2.903415-1.10944zM61.73329924 71.91611q1.84119 0 3.328305.87338 1.51072.84978 2.3605 2.3605.873385 1.51072.873385 3.35191v5.54718q0 .37768-.259655.63733-.259655.25966-.66094.25966-.401285 0-.66094-.23605-.259655-.25966-.259655-.66094v-1.4163q-.826175 1.13304-2.100845 1.79398-1.27467.63733-2.808995.63733-1.793981 0-3.257491-.84978-1.439905-.87338-2.289685-2.3605-.826175-1.51072-.826175-3.35191t.84978-3.35191q.873385-1.51072 2.3605-2.3605 1.51072-.87338 3.351911-.87338zm0 11.49563q1.345485 0 2.431315-.63733 1.08583-.63734 1.69956-1.74677.637335-1.13304.637335-2.52574 0-1.39269-.637335-2.50213-.61373-1.13304-1.69956-1.77037-1.08583-.66094-2.431315-.66094-1.345486 0-2.454921.66094-1.08583.63733-1.723165 1.77037-.61373 1.10944-.61373 2.50213 0 1.3927.61373 2.52574.637335 1.10943 1.723165 1.74677 1.109435.63733 2.454921.63733zM77.49627524 83.12848q.37768 0 .61373.25966.23605.25965.23605.66094 0 .37768-.28326.63733-.28326.25966-.70815.25966h-.495705q-1.251065 0-2.242475-.59013-.99141-.61373-1.55793-1.62874-.542915-1.03862-.542915-2.3369v-6.30253h-1.534325q-.37768 0-.61373-.21245-.212445-.23605-.212445-.56652 0-.35407.212445-.56652.23605-.23605.61373-.23605h1.534325v-3.65877q0-.40129.23605-.66094.259655-.25966.66094-.25966.401285 0 .66094.25966.259655.25965.259655.66094v3.65877h2.667365q.37768 0 .590125.23605.23605.21245.23605.56652 0 .33047-.23605.56652-.212445.21245-.590125.21245h-2.667365v6.30253q0 1.20386.70815 1.98282.70815.75536 1.817585.75536h.637335zM92.06978224 72.03413q.401285 0 .66094.25966.259655.23605.259655.63733v11.09435q0 .40129-.259655.66094-.259655.25966-.66094.25966-.401285 0-.66094-.25966-.23605-.25965-.23605-.66094v-.80257q-.778965.87339-1.8884 1.36909-1.109435.49571-2.40771.49571-1.675956 0-3.021441-.70815-1.32188-.70815-2.07724-2.05364-.75536-1.36909-.75536-3.25749v-6.1373q0-.37768.259655-.63733.259655-.25966.637335-.25966.401285 0 .66094.25966.259655.25965.259655.63733v6.1373q0 2.10085 1.156645 3.21028 1.18025 1.08583 3.068651 1.08583 1.156645 0 2.07724-.44849.9442-.4485 1.487115-1.22746.542915-.80257.542915-1.77038v-6.98708q0-.40128.23605-.63733.259655-.25966.66094-.25966zM103.04094024 71.8925q.99141 0 1.55793.25966.59013.25965.59013.73175 0 .14163-.0236.21245-.0944.33047-.30686.44849-.18884.11803-.54292.11803-.21244 0-.73175-.0472-.18884-.0236-.56652-.0236-1.77038 0-2.90342.9442-1.109432.9442-1.109432 2.45492v7.0579q0 .42489-.23605.66094-.23605.23605-.66094.23605t-.66094-.23605q-.23605-.23605-.23605-.66094V72.93114q0-.42489.23605-.66094.23605-.23605.66094-.23605t.66094.23605q.23605.23605.23605.66094v1.03862q.684545-.99141 1.746772-1.53432 1.06222-.54292 2.28968-.54292zM112.57663024 71.91611q1.74677 0 3.09226.82617 1.34548.80257 2.07724 2.24248.75536 1.4399.75536 3.28109 0 .37768-.23605.61373-.23605.21245-.61373.21245h-9.53642q.18884 1.93561 1.51072 3.13946 1.32188 1.20386 3.3047 1.20386.84978 0 1.69956-.28326.87338-.30687 1.39269-.75536.30687-.23605.63734-.23605.25965 0 .51931.18884.30686.28326.30686.63733 0 .30687-.25965.54292-.77897.66094-1.98282 1.10943-1.20386.42489-2.31329.42489-1.8884 0-3.37552-.82617-1.48711-.84978-2.33689-2.3369-.82618-1.51072-.82618-3.39912 0-1.912.77897-3.39912.80257-1.51072 2.19526-2.33689 1.4163-.84978 3.21028-.84978zm0 1.62874q-1.79398 0-2.97423 1.10944-1.18025 1.10943-1.4399 2.92702h8.63943q-.18884-1.81759-1.32188-2.92702-1.13304-1.10944-2.90342-1.10944zM126.01451024 71.91611q1.55793 0 2.71458.54291 1.15664.51931 1.86479 1.46351.18884.30687.18884.54292 0 .40128-.37768.63733-.16523.11803-.44849.11803-.49571 0-.82618-.35408-1.15664-1.32188-3.16307-1.32188-1.29827 0-2.07724.54292-.77896.51931-.77896 1.32188 0 .84978.73175 1.36909.73176.4957 2.59655.80257 2.52574.42489 3.61157 1.39269 1.08583.9442 1.08583 2.3605 0 1.08583-.66094 1.93561-.63734.84978-1.79398 1.32188-1.15665.4721-2.62016.4721-1.46351 0-2.80899-.4957-1.34549-.49571-2.17166-1.3927-.23605-.28326-.23605-.54291 0-.40129.37768-.70815.28326-.21245.59012-.21245.40129 0 .68455.33047.56652.66094 1.48711 1.01502.9442.35407 2.07724.35407 1.65235 0 2.47853-.56652.82617-.56652.84978-1.48711 0-.84978-.82618-1.4163-.82617-.56652-2.62015-.84978-2.31329-.37768-3.46994-1.29828-1.13304-.9442-1.13304-2.26608 0-1.72316 1.32188-2.66736 1.34549-.9442 3.35191-.9442z" font-family="Comfortaa" font-weight="400" letter-spacing="0" style="line-height:125%;-inkscape-font-specification:'Comfortaa, Normal';text-align:start" word-spacing="0"/>
</svg>
